<svg xmlns="http://www.w3.org/2000/svg" width="132.158" height="56.246" viewBox="0 0 132.158 56.246">
  <g id="Group_176130" data-name="Group 176130" transform="translate(-31.165 -23.02)">
    <path id="Path_110695" data-name="Path 110695" d="M-63.835-26.656h23.324V2.482h-3.91V-22.984h-15.64V2.55h-3.774Zm2.55,11.492h18.5v3.6h-18.5Zm-.034,11.832h18.564V.34H-61.319Zm28.934-18.7H-2.4v3.706H-32.385Zm6.936,15.368h15.81v3.706h-15.81Zm6.052-22.1h3.876V2.958H-19.4Zm-1.088,8.058,3.332,1.054a41.061,41.061,0,0,1-3.587,6.987,38.908,38.908,0,0,1-4.709,6,28.685,28.685,0,0,1-5.542,4.522,9.943,9.943,0,0,0-.782-1.037q-.476-.561-.969-1.1a9.2,9.2,0,0,0-.9-.884A24.231,24.231,0,0,0-29.58-7.99,31.532,31.532,0,0,0-25.908-11.7a33.433,33.433,0,0,0,3.094-4.335A32.656,32.656,0,0,0-20.485-20.706Zm6.086.1a32.741,32.741,0,0,0,3.315,5.967,31.49,31.49,0,0,0,4.607,5.27,24.847,24.847,0,0,0,5.44,3.825q-.442.408-.969.969T-3.026-3.4a12.01,12.01,0,0,0-.833,1.156A28.718,28.718,0,0,1-9.418-6.7a36.3,36.3,0,0,1-4.692-5.933A44.6,44.6,0,0,1-17.7-19.516Zm32.062-5.848H29.8v2.924H17.663ZM15.657-28.8h3.638v9.078H15.657Zm-8.6,1.734h3.468v7.14H7.055ZM6.137-1.6H28.781V1.53H6.137ZM2.023-21.352h30.94v3.2H2.023Zm6.494,9.316H26.571V-9.35H8.517ZM3.995-17.17H7.463V2.992H3.995Zm23.562,0h3.536V2.992H27.557Zm-11.8-.068h3.128V-2.346H15.759ZM9.4-15.81l2.448-.952a15.432,15.432,0,0,1,1.411,1.887,10.17,10.17,0,0,1,.969,1.853L11.679-11.9a12.938,12.938,0,0,0-.952-1.921A18.933,18.933,0,0,0,9.4-15.81Zm13.294-1.122,2.89.918-1.394,2.125A21.16,21.16,0,0,1,22.9-12.1l-2.312-.85q.544-.816,1.156-1.955A18.081,18.081,0,0,0,22.695-16.932Zm-7.208,6.188,2.21.816a17.657,17.657,0,0,1-2.176,2.856A22.455,22.455,0,0,1,12.75-4.539,16.1,16.1,0,0,1,9.741-2.686a10.8,10.8,0,0,0-.952-1.258A8.673,8.673,0,0,0,7.667-5.066a16.239,16.239,0,0,0,3.009-1.445A20.4,20.4,0,0,0,13.43-8.517,12.31,12.31,0,0,0,15.487-10.744Zm3.774-.034a12.809,12.809,0,0,0,2.074,2.193A20.19,20.19,0,0,0,24.072-6.63,18.573,18.573,0,0,0,26.979-5.2,10.492,10.492,0,0,0,25.891-4.08,15.384,15.384,0,0,0,24.9-2.822a18.454,18.454,0,0,1-2.958-1.836A22.268,22.268,0,0,1,19.159-7.14a21.17,21.17,0,0,1-2.21-2.72ZM41.8-25.738h3.57V2.924H41.8ZM36.5-19.21H50v3.4H36.5Zm5.508,1.326,2.176.952q-.51,1.836-1.207,3.791t-1.53,3.876q-.833,1.921-1.768,3.6a20.52,20.52,0,0,1-1.921,2.907,10.512,10.512,0,0,0-.765-1.785q-.527-1-.969-1.683a18.072,18.072,0,0,0,1.8-2.414q.884-1.394,1.683-2.975t1.445-3.2A30.113,30.113,0,0,0,42.007-17.884Zm5.712-10.574,2.074,2.992a38.983,38.983,0,0,1-3.74,1.122q-2.04.51-4.182.884t-4.114.612a7.832,7.832,0,0,0-.408-1.428q-.306-.816-.578-1.394,1.938-.306,3.927-.731t3.825-.952A27.974,27.974,0,0,0,47.719-28.458ZM45.237-15.572q.34.34.986,1.054t1.394,1.581q.748.867,1.377,1.632t.9,1.071L47.753-7.378q-.306-.646-.833-1.564t-1.139-1.9q-.612-.986-1.173-1.853t-.969-1.411Zm15.368-13.26h3.6V2.89h-3.6Zm-11.118,22L67.779-9.928l.544,3.434L50.031-3.332Zm2.346-17.748,2.38-2.074q.952.68,1.989,1.53t1.938,1.717a14.233,14.233,0,0,1,1.445,1.581l-2.55,2.312a13.785,13.785,0,0,0-1.36-1.649q-.85-.9-1.853-1.8A24.411,24.411,0,0,0,51.833-24.582Zm-1.258,8.908,2.312-2.074q1.02.68,2.125,1.547t2.074,1.751a15.105,15.105,0,0,1,1.547,1.6l-2.482,2.38a12.288,12.288,0,0,0-1.479-1.7q-.935-.918-2.023-1.836T50.575-15.674Z" transform="translate(95 51.852)" fill="#3c3c3c"/>
    <path id="Path_110696" data-name="Path 110696" d="M-56.83,0h-1.482l-3.8-6.053V0H-63.6V-8.531h1.482L-58.3-2.455V-8.531h1.471Zm8.716,0H-49.59V-8.531h1.477Zm14,0h-1.477V-3.791h-3.814V0h-1.482V-8.531h1.482V-4.98h3.814V-8.531h1.477Zm13.961-4.043a5.234,5.234,0,0,1-.434,2.2A3.278,3.278,0,0,1-21.83-.39a3.409,3.409,0,0,1-1.854.507A3.417,3.417,0,0,1-25.533-.39a3.329,3.329,0,0,1-1.254-1.444A5.07,5.07,0,0,1-27.236-4v-.48a5.189,5.189,0,0,1,.442-2.2,3.325,3.325,0,0,1,1.248-1.462A3.4,3.4,0,0,1-23.7-8.648a3.428,3.428,0,0,1,1.849.5A3.283,3.283,0,0,1-20.6-6.706a5.178,5.178,0,0,1,.445,2.188Zm-1.482-.445a3.729,3.729,0,0,0-.536-2.174A1.754,1.754,0,0,0-23.7-7.418a1.749,1.749,0,0,0-1.5.753,3.657,3.657,0,0,0-.554,2.13v.492a3.7,3.7,0,0,0,.548,2.174,1.764,1.764,0,0,0,1.521.768,1.743,1.743,0,0,0,1.515-.75,3.781,3.781,0,0,0,.53-2.191ZM-6.513,0H-8l-3.8-6.053V0h-1.482V-8.531H-11.8l3.814,6.076V-8.531h1.471Zm20-2.2a1.03,1.03,0,0,0-.4-.867,4.759,4.759,0,0,0-1.427-.615,6.89,6.89,0,0,1-1.641-.691,2.189,2.189,0,0,1-1.166-1.91A2.079,2.079,0,0,1,9.7-7.98a3.4,3.4,0,0,1,2.183-.668,3.687,3.687,0,0,1,1.588.328,2.606,2.606,0,0,1,1.1.935,2.4,2.4,0,0,1,.4,1.345H13.486a1.337,1.337,0,0,0-.419-1.046,1.729,1.729,0,0,0-1.2-.378,1.806,1.806,0,0,0-1.128.311,1.034,1.034,0,0,0-.4.867.935.935,0,0,0,.434.782A5,5,0,0,0,12.2-4.9a6.576,6.576,0,0,1,1.6.674,2.544,2.544,0,0,1,.885.867,2.258,2.258,0,0,1,.281,1.146,2.03,2.03,0,0,1-.817,1.7,3.545,3.545,0,0,1-2.218.63,4.168,4.168,0,0,1-1.7-.343,2.859,2.859,0,0,1-1.207-.946,2.358,2.358,0,0,1-.431-1.406h1.482a1.38,1.38,0,0,0,.48,1.125,2.1,2.1,0,0,0,1.377.4A1.828,1.828,0,0,0,13.1-1.368,1.011,1.011,0,0,0,13.486-2.2ZM28.443,0H26.966V-3.791H23.152V0H21.669V-8.531h1.482V-4.98h3.814V-8.531h1.477Zm8.716,0H35.682V-8.531h1.477ZM46.83-3.686,45.864-2.66V0H44.381V-8.531h1.482v4l.82-1.014,2.5-2.988h1.793L47.8-4.752,51.155,0H49.4Zm15.291,1.7h-3.3L58.125,0H56.584l3.223-8.531h1.33L64.365,0H62.818Zm-2.889-1.2h2.473L60.469-6.721Z" transform="translate(95 79.148)" fill="#5c5c5c"/>
  </g>
</svg>
